HIERARCHY
ROOT Hips
{
	OFFSET 0.000000 0.000000 0.000000 
	CHANNELS 6 Xposition Yposition Zposition Yrotation Zrotation Xrotation 
	JOINT Lumbar
	{
		OFFSET 0.000000 0.000000 0.000000 
		CHANNELS 3 Zrotation Xrotation Yrotation
		JOINT Neck
		{
			OFFSET 0.000000 0.445665 0.000000 
			CHANNELS 3 Zrotation Xrotation Yrotation
			End Site
			{
				OFFSET 0.000000 0.227535 0.000000 
			}
		}
		JOINT RightShoulder
		{
			OFFSET 0.019635 0.377685 0.194865 
			CHANNELS 3 Zrotation Xrotation Yrotation
			JOINT RightElbow
			{
				OFFSET 0.000000 -0.243375 0.000000 
				CHANNELS 2 Zrotation Yrotation
				JOINT RightWrist
				{
					OFFSET 0.000000 -0.264825 0.000000 
					CHANNELS 2 Zrotation Xrotation
					End Site
					{
						OFFSET 0.006600 -0.176220 0.000990 
					}
				}
			}
		}
		JOINT LeftShoulder
		{
			OFFSET 0.019635 0.377685 -0.194865 
			CHANNELS 3 Zrotation Xrotation Yrotation
			JOINT LeftElbow
			{
				OFFSET 0.000000 -0.243375 0.000000 
				CHANNELS 2 Zrotation Yrotation
				JOINT LeftWrist
				{
					OFFSET 0.000000 -0.264825 0.000000 
					CHANNELS 2 Zrotation Xrotation
					End Site
					{
						OFFSET 0.006600 -0.176220 -0.000990 
					}
				}
			}
		}
	}
	JOINT RightHip
	{
		OFFSET 0.052140 -0.069960 0.075570 
		CHANNELS 3 Zrotation Xrotation Yrotation
		JOINT RightKnee
		{
			OFFSET 0.000000 -0.402270 0.000000 
			CHANNELS 1 Zrotation
			JOINT RightAnkle
			{
				OFFSET 0.000000 -0.404085 0.000000 
				CHANNELS 3 Zrotation Xrotation Yrotation
				End Site
				{
					OFFSET 0.204105 -0.089430 0.008415 
				}
			}
		}
	}
	JOINT LeftHip
	{
		OFFSET 0.052140 -0.069960 -0.075570 
		CHANNELS 3 Zrotation Xrotation Yrotation
		JOINT LeftKnee
		{
			OFFSET 0.000000 -0.402270 0.000000 
			CHANNELS 1 Zrotation
			JOINT LeftAnkle
			{
				OFFSET 0.000000 -0.404085 0.000000 
				CHANNELS 3 Zrotation Xrotation Yrotation
				End Site
				{
					OFFSET 0.204105 -0.089430 -0.008415 
				}
			}
		}
	}
}
MOTION
Frames: 22
Frame Time: 0.02
0.07077 -0.93499 0.0042 14.95658 16.93475 -2.37188 -18.15654 8.93302 -3.42315 4.29107 -40.66799 -2.11994 47.54655 9.5933 55.19657 24.72234 77.29739 1.3647 -6.77008 37.31059 -3.04278 -53.87891 78.17908 -110.65894 49.51598 0.26636 93.88448 6.43366 -23.59078 -16.79647 -15.90508 -2.76307 -4.05236 126.68097 15.17126 46.69606 -126.64087 10.63493 -12.86278 -1.66519
0.07074 -0.93507 0.00418 14.97 16.96138 -2.39783 -18.15834 8.93208 -3.44879 4.39245 -40.7879 -2.11994 47.55729 9.58654 55.16643 24.66526 77.39549 1.23753 -6.79053 37.37252 -3.01338 -53.87735 78.12819 -110.6077 49.46357 0.26973 93.85981 6.4289 -23.55714 -16.78961 -15.90555 -2.7685 -4.05454 126.68097 15.14852 46.69606 -126.62679 10.56894 -12.80599 -1.59133
0.07073 -0.93516 0.00416 14.9773 16.97468 -2.41781 -18.15817 8.92726 -3.48969 4.52568 -40.92945 -2.11994 47.56032 9.5832 55.15055 24.68123 77.31761 1.14445 -6.84589 37.43637 -2.97052 -53.87671 78.10293 -110.51106 49.41758 0.27889 93.84321 6.42443 -23.58071 -16.77546 -15.90621 -2.77049 -4.05472 126.68096 15.12275 46.69606 -126.61132 10.55152 -12.76688 -1.55187
0.07071 -0.93524 0.00415 14.98687 16.99354 -2.4403 -18.15879 8.92363 -3.52219 4.64413 -41.05822 -2.11994 47.56636 9.57781 55.12746 24.66287 77.32581 1.04046 -6.88136 37.49756 -2.93695 -53.87575 78.06803 -110.44166 49.37118 0.28468 93.82393 6.4203 -23.57587 -16.76578 -15.9068 -2.77419 -4.05591 126.68096 15.09951 46.69606 -126.59682 10.51166 -12.7201 -1.49769
0.07068 -0.93533 0.00413 14.99852 17.01457 -2.46384 -18.1603 8.92258 -3.56068 4.76438 -41.19926 -2.11994 47.57444 9.57367 55.10659 24.64746 77.31529 0.9191 -6.93181 37.56577 -2.89084 -53.87448 78.02548 -110.34646 49.3143 0.29329 93.80071 6.41417 -23.57977 -16.75194 -15.90717 -2.77743 -4.0567 126.68096 15.07156 46.69605 -126.58088 10.4725 -12.67135 -1.43881
0.07067 -0.9354 0.00411 15.00451 17.02797 -2.48379 -18.15939 8.91529 -3.5904 4.88785 -41.3199 -2.11994 47.57652 9.56805 55.08503 24.64391 77.29911 0.84105 -6.9604 37.62008 -2.86715 -53.87404 78.00437 -110.29297 49.28043 0.29758 93.7874 6.41216 -23.58007 -16.74472 -15.90805 -2.78072 -4.05782 126.68096 15.05249 46.69605 -126.56766 10.44376 -12.63096 -1.3981
0.07072 -0.93541 0.00411 14.99521 17.0226 -2.49427 -18.15134 8.89046 -3.59192 5.01728 -41.37942 -2.11994 47.56312 9.55755 55.05556 24.65572 77.31196 0.87701 -6.91683 37.63478 -2.91101 -53.87574 78.03926 -110.3713 49.31232 0.28779 93.80092 6.42305 -23.55042 -16.75811 -15.9108 -2.78528 -4.06058 126.68096 15.06039 46.69605 -126.56192 10.43198 -12.61052 -1.40052
0.07079 -0.93539 0.00411 14.98068 17.01016 -2.50155 -18.14104 8.85976 -3.58416 5.1479 -41.4176 -2.11994 47.54413 9.54555 55.02549 24.67709 77.32388 0.95462 -6.85092 37.63568 -2.97741 -53.87823 78.09415 -110.49188 49.36646 0.27363 93.82385 6.43781 -23.51619 -16.77817 -15.91398 -2.78996 -4.06369 126.68096 15.07693 46.69606 -126.55905 10.42923 -12.5977 -1.41982
0.07084 -0.93538 0.00411 14.96927 17.00159 -2.51082 -18.1323 8.83242 -3.5808 5.27482 -41.46528 -2.11994 47.52819 9.53433 54.99742 24.69405 77.33421 1.01109 -6.79761 37.64342 -3.03186 -53.88032 78.13788 -110.5893 49.40799 0.262 93.84156 6.44977 -23.48839 -16.7948 -15.91665 -2.79437 -4.06647 126.68096 15.08849 46.69606 -126.55514 10.42228 -12.58076 -1.43082
0.0709 -0.93538 0.00412 14.95438 16.98985 -2.51734 -18.12117 8.80168 -3.57714 5.41633 -41.51457 -2.11994 47.50969 9.52285 54.96247 24.71389 77.34709 1.07808 -6.7351 37.64863 -3.09298 -53.88262 78.19148 -110.70202 49.46036 0.24827 93.86361 6.46607 -23.44513 -16.81311 -15.92065 -2.7995 -4.06986 126.68097 15.10469 46.69606 -126.55008 10.41696 -12.5674 -1.44616
0.07096 -0.93536 0.00411 14.94573 16.98313 -2.52926 -18.1146 8.77709 -3.57177 5.52714 -41.55514 -2.11994 47.49546 9.51147 54.94163 24.72897 77.35662 1.13266 -6.68605 37.65607 -3.14584 -53.88466 78.22864 -110.7933 49.49527 0.23781 93.87866 6.47431 -23.43108 -16.82931 -15.92195 -2.80329 -4.07214 126.68097 15.11293 46.69606 -126.54811 10.41032 -12.54793 -1.45539
0.07104 -0.93534 0.00408 14.95422 16.99286 -2.55381 -18.12034 8.76737 -3.56322 5.55447 -41.57686 -2.11994 47.49307 9.50104 54.959 24.72905 77.35851 1.14212 -6.67923 37.6708 -3.16943 -53.88587 78.21814 -110.817 49.47719 0.23745 93.87278 6.45888 -23.50905 -16.84054 -15.91598 -2.80259 -4.07085 126.68097 15.10048 46.69606 -126.55387 10.39257 -12.51167 -1.44924
0.07113 -0.93532 0.00403 14.96942 17.0078 -2.58442 -18.13087 8.76462 -3.55332 5.55047 -41.59042 -2.11994 47.49543 9.49071 54.99064 24.72359 77.3577 1.13764 -6.6866 37.6886 -3.18414 -53.88679 78.1899 -110.8176 49.44067 0.2405 93.85938 6.43528 -23.61462 -16.84906 -15.90724 -2.80067 -4.06851 126.68096 15.07919 46.69606 -126.56265 10.37378 -12.4686 -1.43533
0.07121 -0.9353 0.004 14.98254 17.01988 -2.61444 -18.13976 8.76117 -3.54445 5.55957 -41.60762 -2.11994 47.49658 9.48011 55.01631 24.71991 77.3581 1.13978 -6.68762 37.70655 -3.2036 -53.88779 78.1678 -110.82764 49.41202 0.24197 93.84885 6.41574 -23.70025 -16.85714 -15.89956 -2.79984 -4.06695 126.68096 15.05959 46.69606 -126.57013 10.35881 -12.42719 -1.42088
0.07131 -0.93528 0.00393 14.99156 17.0338 -2.63563 -18.1464 8.74751 -3.53353 5.57337 -41.62443 -2.11994 47.49366 9.47033 55.03994 24.71957 77.35839 1.14211 -6.68761 37.71781 -3.22089 -53.88901 78.15409 -110.84332 49.38603 0.24347 93.84082 6.39488 -23.81604 -16.87225 -15.89268 -2.79685 -4.06419 126.68096 15.04968 46.69605 -126.57747 10.33053 -12.39184 -1.42344
0.07136 -0.93526 0.00393 15.01054 17.04522 -2.67615 -18.15878 8.75631 -3.52663 5.57014 -41.64033 -2.11994 47.50022 9.45897 55.07103 24.71103 77.35834 1.14028 -6.69325 37.74354 -3.24023 -53.88972 78.11899 -110.84157 49.35015 0.24574 93.82586 6.37477 -23.87683 -16.87232 -15.88354 -2.79796 -4.06362 126.68096 15.01793 46.69605 -126.58572 10.329 -12.3425 -1.38946
0.07127 -0.93527 0.00412 15.05765 17.0486 -2.77327 -18.18709 8.8301 -3.5317 5.52547 -41.6562 -2.11994 47.53363 9.44259 55.12082 24.67932 77.358 1.12928 -6.71235 37.81177 -3.26801 -53.889 78.02411 -110.79413 49.28862 0.24959 93.79185 6.35874 -23.7683 -16.82863 -15.8682 -2.8116 -4.06975 126.68096 14.92315 46.69605 -126.59619 10.40686 -12.25321 -1.24781
0.07113 -0.93528 0.00437 15.11416 17.04932 -2.88878 -18.22083 8.92544 -3.54081 5.46509 -41.67146 -2.11994 47.57613 9.42473 55.17728 24.63985 77.35744 1.11458 -6.73653 37.89394 -3.29792 -53.88781 77.90913 -110.73036 49.2182 0.25407 93.75139 6.34373 -23.60538 -16.77039 -15.8508 -2.82925 -4.07803 126.68096 14.80752 46.69605 -126.60737 10.51069 -12.15059 -1.07108
0.07102 -0.93529 0.00459 15.1649 17.05122 -2.99278 -18.25126 9.00785 -3.54777 5.41331 -41.68674 -2.11994 47.61328 9.40796 55.22966 24.60511 77.35702 1.10211 -6.75762 37.9676 -3.32635 -53.8869 77.8066 -110.67595 49.15362 0.25812 93.71499 6.32822 -23.47446 -16.72073 -15.83477 -2.84447 -4.08503 126.68096 14.70463 46.69605 -126.61789 10.59907 -12.05602 -0.91608
0.07089 -0.93531 0.00484 15.22216 17.05338 -3.11025 -18.28532 9.10362 -3.55602 5.3544 -41.70271 -2.11994 47.65567 9.38946 55.28709 24.56507 77.35632 1.08687 -6.78243 38.05043 -3.35668 -53.88568 77.68959 -110.61247 49.08083 0.26291 93.67363 6.31257 -23.31408 -16.66276 -15.81683 -2.8622 -4.09325 126.68096 14.58777 46.69605 -126.62991 10.70265 -11.95285 -0.7367
0.07079 -0.93531 0.00503 15.26804 17.05436 -3.20402 -18.31315 9.17672 -3.56256 5.30684 -41.71732 -2.11994 47.68931 9.37416 55.33525 24.53435 77.3562 1.07667 -6.80061 38.11755 -3.38364 -53.88503 77.59805 -110.56444 49.02322 0.26624 93.64107 6.29759 -23.20138 -16.61856 -15.80242 -2.87568 -4.09947 126.68096 14.49503 46.69605 -126.63895 10.78094 -11.86445 -0.59947
0.07078 -0.93528 0.00506 15.27977 17.05227 -3.22723 -18.32146 9.18087 -3.56339 5.29621 -41.72746 -2.11994 47.69602 9.36855 55.35737 24.53074 77.35766 1.08155 -6.79844 38.13696 -3.40095 -53.88592 77.58312 -110.56206 49.01036 0.26548 93.63515 6.28395 -23.23702 -16.61705 -15.79827 -2.87629 -4.09956 126.68096 14.47514 46.69605 -126.63933 10.78128 -11.82081 -0.59076
